<svg xmlns="http://www.w3.org/2000/svg" width="73.817" height="22.88"><path d="M0 22.88h73.817V0H0z"/><g aria-label="blackT" style="-inkscape-font-specification:LMRoman10-Bold" font-weight="700" font-size="9.963" font-family="LMRoman10" fill="#fff"><path d="M13.283 11.655c0-1.767-1.248-3.016-3.174-3.016-.97 0-1.634.385-1.953.651V5.398l-2.351.106v.625c.823 0 .916 0 .916.518v7.97h.624c.213-.252.439-.492.651-.744.107.106.758.824 1.94.824 1.98 0 3.347-1.196 3.347-3.042zm-1.7 0c0 .624 0 1.355-.345 1.873-.386.544-.997.69-1.422.69-.93 0-1.448-.717-1.58-.916V9.968c.358-.465.996-.85 1.726-.85 1.621 0 1.621 1.607 1.621 2.537zM17.693 14.617v-.624h-.916V5.398l-2.352.106v.625c.824 0 .917 0 .917.518v7.346h-.917v.624l1.634-.04zM25.385 14.298c0-.305-.173-.305-.346-.305-.81-.014-.81-.186-.81-.492v-2.856c0-1.182-.943-2.046-2.923-2.046-.757 0-2.377.053-2.377 1.222 0 .585.465.837.823.837.412 0 .837-.279.837-.837a.84.84 0 0 0-.292-.65c.372-.08.797-.093.956-.093.997 0 1.462.558 1.462 1.567v.452c-.944.04-4.318.16-4.318 2.085 0 1.276 1.647 1.515 2.564 1.515 1.063 0 1.687-.545 1.98-1.103 0 .412 0 1.023 1.38 1.023h.639c.265 0 .425 0 .425-.319zm-2.67-1.527c0 1.275-1.223 1.447-1.555 1.447-.677 0-1.209-.464-1.209-1.049 0-1.435 2.1-1.62 2.764-1.66zM31.814 13.063c0-.186-.186-.186-.319-.186-.24 0-.252.026-.319.2-.345.836-.983 1.088-1.66 1.088-1.847 0-1.847-1.952-1.847-2.563 0-.744 0-2.471 1.714-2.471.465 0 .69.04.863.08a.816.816 0 0 0-.265.61c0 .585.465.837.823.837.412 0 .837-.279.837-.837 0-1.142-1.54-1.222-2.311-1.222-2.378 0-3.361 1.528-3.361 3.069 0 1.767 1.249 3.029 3.294 3.029 2.152 0 2.55-1.541 2.55-1.634zM39.625 14.617v-.624h-.226c-.572 0-.611-.053-.784-.266l-2.245-2.803 1.727-1.342c.186-.146.305-.239 1.195-.239V8.72c-.358.04-.69.04-1.036.04l-1.527-.04v.624c.305 0 .345.04.451.146l-2.51 1.98V5.398l-2.352.106v.625c.824 0 .917 0 .917.518v7.346h-.917v.624l1.594-.04 1.608.04v-.624h-.917v-1.687c.385-.306.492-.386.757-.572l1.342 1.674c.12.16.332.425.332.465 0 .12-.239.12-.412.12v.624c.399-.027 1.555-.04 1.621-.04.478 0 .93.013 1.382.04zM49.946 8.852l-.28-3.202h-8.94l-.278 3.202h.624c.12-1.501.253-2.577 2.165-2.577h1.023v7.718h-2.032v.624c.717-.04 2.192-.04 2.976-.04.783 0 2.258 0 2.975.04v-.624h-2.032V6.275h1.01c1.899 0 2.032 1.062 2.165 2.577z"/></g><g style="-inkscape-font-specification:LMRoman10-Bold"><path d="M57.907 13.927h-.624c-.292 1.833-.664 3.016-3.122 3.016h-2.019v-3.746h.73c1.276 0 1.409.57 1.409 1.554h.624v-3.733h-.624c0 .983-.12 1.554-1.408 1.554h-.73V9.158h2.018c2.139 0 2.484.97 2.697 2.577h.624l-.412-3.201h-8.249v.624h1.435v7.785H48.82v.624h8.475z" aria-label="E" font-weight="700" font-size="9.963" font-family="LMRoman10" fill="#fff"/></g><g style="-inkscape-font-specification:LMRoman10-Bold"><path d="M67.777 14.617v-.624h-1.302l-3.36-4.65 2.231-2.935c.146-.186.16-.2.624-.24.32-.04.399-.04.771-.04h.385v-.624c-.558.04-1.209.04-1.78.04-.518 0-1.54 0-2.019-.04v.625c.24 0 .757 0 1.222.146-.013.026-.08.106-.106.146l-1.754 2.324-1.9-2.616h1.103v-.625c-.544.04-1.806.04-2.404.04-.531 0-1.687 0-2.152-.04v.625h1.302l2.949 4.078-2.684 3.52c-.12.16-.146.186-.57.226-.266.026-.545.04-.811.04h-.385v.624c.558-.04 1.208-.04 1.78-.04.518 0 1.54 0 2.019.04v-.624c-.24 0-.757 0-1.222-.146.013-.027.08-.107.106-.147l2.192-2.909 2.311 3.202h-1.102v.624c.544-.04 1.806-.04 2.404-.04.531 0 1.687 0 2.152.04z" aria-label="X" font-weight="700" font-size="9.963" font-family="LMRoman10" fill="#fff"/></g></svg>